<svg xmlns="http://www.w3.org/2000/svg" viewBox="0 0 800 440">
  <rect width="800" height="440" fill="#ffffff"/>

  <rect x="0" y="0" width="800" height="60" fill="#f59e0b"/>
  <text x="400" y="38" font-family="Arial, Helvetica, sans-serif" font-size="22" text-anchor="middle" fill="#ffffff">Real-world Applications</text>

  <rect x="60" y="90" width="680" height="280" rx="14" ry="14" fill="#fffbeb" stroke="#f59e0b" stroke-width="2"/>

  <!-- Application areas -->
  <g font-family="Arial, Helvetica, sans-serif" font-size="14" fill="#111">
    <rect x="100" y="130" width="150" height="100" rx="8" ry="8" fill="#fef3c7" stroke="#f59e0b"/>
    <text x="175" y="150" text-anchor="middle" fill="#92400e" font-weight="bold">Weather & Climate</text>
    <text x="120" y="170" fill="#92400e">• Temperature trends</text>
    <text x="120" y="185" fill="#92400e">• Rainfall patterns</text>
    <text x="120" y="200" fill="#92400e">• Storm predictions</text>
    <text x="120" y="215" fill="#92400e">• Climate change</text>

    <rect x="280" y="130" width="150" height="100" rx="8" ry="8" fill="#ecfdf5" stroke="#10b981"/>
    <text x="355" y="150" text-anchor="middle" fill="#065f46" font-weight="bold">Medical Research</text>
    <text x="300" y="170" fill="#065f46">• Drug effectiveness</text>
    <text x="300" y="185" fill="#065f46">• Disease patterns</text>
    <text x="300" y="200" fill="#065f46">• Treatment outcomes</text>
    <text x="300" y="215" fill="#065f46">• Public health</text>

    <rect x="460" y="130" width="150" height="100" rx="8" ry="8" fill="#eff6ff" stroke="#3b82f6"/>
    <text x="535" y="150" text-anchor="middle" fill="#1e40af" font-weight="bold">Sports Analytics</text>
    <text x="480" y="170" fill="#1e40af">• Player performance</text>
    <text x="480" y="185" fill="#1e40af">• Game strategies</text>
    <text x="480" y="200" fill="#1e40af">• Injury prevention</text>
    <text x="480" y="215" fill="#1e40af">• Fan engagement</text>

    <rect x="100" y="250" width="150" height="100" rx="8" ry="8" fill="#fce7f3" stroke="#ec4899"/>
    <text x="175" y="270" text-anchor="middle" fill="#be185d" font-weight="bold">Business & Economics</text>
    <text x="120" y="290" fill="#be185d">• Market trends</text>
    <text x="120" y="305" fill="#be185d">• Consumer behavior</text>
    <text x="120" y="320" fill="#be185d">• Sales forecasting</text>
    <text x="120" y="335" fill="#be185d">• Risk assessment</text>

    <rect x="280" y="250" width="150" height="100" rx="8" ry="8" fill="#f3e8ff" stroke="#a855f7"/>
    <text x="355" y="270" text-anchor="middle" fill="#6b21a8" font-weight="bold">Education</text>
    <text x="300" y="290" fill="#6b21a8">• Learning outcomes</text>
    <text x="300" y="305" fill="#6b21a8">• Student performance</text>
    <text x="300" y="320" fill="#6b21a8">• Curriculum design</text>
    <text x="300" y="335" fill="#6b21a8">• Resource allocation</text>

    <rect x="460" y="250" width="150" height="100" rx="8" ry="8" fill="#f0fdf4" stroke="#22c55e"/>
    <text x="535" y="270" text-anchor="middle" fill="#14532d" font-weight="bold">Government & Policy</text>
    <text x="480" y="290" fill="#14532d">• Population studies</text>
    <text x="480" y="305" fill="#14532d">• Crime statistics</text>
    <text x="480" y="320" fill="#14532d">• Economic indicators</text>
    <text x="480" y="335" fill="#14532d">• Social programs</text>
  </g>

  <text x="400" y="360" font-family="Arial, Helvetica, sans-serif" font-size="11" text-anchor="middle" fill="#6b7280">Used in many real-world areas</text>
</svg>
