<svg xmlns="http://www.w3.org/2000/svg" width="800" height="400" viewBox="0 0 800 400">
  <title>Number Systems Comparison</title>
  <desc>Comparison of different number systems including decimal, binary, and hexadecimal</desc>
  <rect width="800" height="400" fill="#ffffff"/>
  <g font-family="Arial, Helvetica, sans-serif" fill="#111">
    <text x="400" y="30" text-anchor="middle" font-size="24" font-weight="bold">Number Systems Comparison</text>
    
    <!-- Decimal System -->
    <g transform="translate(50,80)">
      <text x="0" y="0" font-size="18" font-weight="bold" fill="#2563eb">Decimal (Base-10)</text>
      <text x="0" y="25" font-size="14">Uses 10 digits: 0, 1, 2, 3, 4, 5, 6, 7, 8, 9</text>
      
      <g transform="translate(0,40)">
        <rect x="0" y="0" width="30" height="30" fill="#e0f2fe" stroke="#2563eb" stroke-width="2" rx="5"/>
        <text x="15" y="20" text-anchor="middle" font-weight="bold">0</text>
        <rect x="35" y="0" width="30" height="30" fill="#e0f2fe" stroke="#2563eb" stroke-width="2" rx="5"/>
        <text x="50" y="20" text-anchor="middle" font-weight="bold">1</text>
        <rect x="70" y="0" width="30" height="30" fill="#e0f2fe" stroke="#2563eb" stroke-width="2" rx="5"/>
        <text x="85" y="20" text-anchor="middle" font-weight="bold">2</text>
        <rect x="105" y="0" width="30" height="30" fill="#e0f2fe" stroke="#2563eb" stroke-width="2" rx="5"/>
        <text x="120" y="20" text-anchor="middle" font-weight="bold">3</text>
        <rect x="140" y="0" width="30" height="30" fill="#e0f2fe" stroke="#2563eb" stroke-width="2" rx="5"/>
        <text x="155" y="20" text-anchor="middle" font-weight="bold">4</text>
        <rect x="175" y="0" width="30" height="30" fill="#e0f2fe" stroke="#2563eb" stroke-width="2" rx="5"/>
        <text x="190" y="20" text-anchor="middle" font-weight="bold">5</text>
        <rect x="210" y="0" width="30" height="30" fill="#e0f2fe" stroke="#2563eb" stroke-width="2" rx="5"/>
        <text x="225" y="20" text-anchor="middle" font-weight="bold">6</text>
        <rect x="245" y="0" width="30" height="30" fill="#e0f2fe" stroke="#2563eb" stroke-width="2" rx="5"/>
        <text x="260" y="20" text-anchor="middle" font-weight="bold">7</text>
        <rect x="280" y="0" width="30" height="30" fill="#e0f2fe" stroke="#2563eb" stroke-width="2" rx="5"/>
        <text x="295" y="20" text-anchor="middle" font-weight="bold">8</text>
        <rect x="315" y="0" width="30" height="30" fill="#e0f2fe" stroke="#2563eb" stroke-width="2" rx="5"/>
        <text x="330" y="20" text-anchor="middle" font-weight="bold">9</text>
      </g>
      
      <text x="0" y="100" font-size="14">Example: 123 = 1×100 + 2×10 + 3×1</text>
      <text x="0" y="120" font-size="14">Place values: 1, 10, 100, 1000...</text>
    </g>
    
    <!-- Binary System -->
    <g transform="translate(450,80)">
      <text x="0" y="0" font-size="18" font-weight="bold" fill="#059669">Binary (Base-2)</text>
      <text x="0" y="25" font-size="14">Uses 2 digits: 0, 1</text>
      
      <g transform="translate(0,40)">
        <rect x="0" y="0" width="40" height="40" fill="#dcfce7" stroke="#059669" stroke-width="3" rx="5"/>
        <text x="20" y="25" text-anchor="middle" font-size="18" font-weight="bold">0</text>
        <rect x="60" y="0" width="40" height="40" fill="#dcfce7" stroke="#059669" stroke-width="3" rx="5"/>
        <text x="80" y="25" text-anchor="middle" font-size="18" font-weight="bold">1</text>
      </g>
      
      <text x="0" y="100" font-size="14">Example: 101 = 1×4 + 0×2 + 1×1 = 5</text>
      <text x="0" y="120" font-size="14">Place values: 1, 2, 4, 8, 16...</text>
    </g>
    
    <!-- Hexadecimal System -->
    <g transform="translate(50,220)">
      <text x="0" y="0" font-size="18" font-weight="bold" fill="#7c3aed">Hexadecimal (Base-16)</text>
      <text x="0" y="25" font-size="14">Uses 16 digits: 0-9, A-F</text>
      
      <g transform="translate(0,40)">
        <rect x="0" y="0" width="25" height="25" fill="#f3e8ff" stroke="#7c3aed" stroke-width="2" rx="3"/>
        <text x="12" y="17" text-anchor="middle" font-size="12" font-weight="bold">0</text>
        <rect x="30" y="0" width="25" height="25" fill="#f3e8ff" stroke="#7c3aed" stroke-width="2" rx="3"/>
        <text x="42" y="17" text-anchor="middle" font-size="12" font-weight="bold">1</text>
        <rect x="60" y="0" width="25" height="25" fill="#f3e8ff" stroke="#7c3aed" stroke-width="2" rx="3"/>
        <text x="72" y="17" text-anchor="middle" font-size="12" font-weight="bold">2</text>
        <rect x="90" y="0" width="25" height="25" fill="#f3e8ff" stroke="#7c3aed" stroke-width="2" rx="3"/>
        <text x="102" y="17" text-anchor="middle" font-size="12" font-weight="bold">3</text>
        <rect x="120" y="0" width="25" height="25" fill="#f3e8ff" stroke="#7c3aed" stroke-width="2" rx="3"/>
        <text x="132" y="17" text-anchor="middle" font-size="12" font-weight="bold">4</text>
        <rect x="150" y="0" width="25" height="25" fill="#f3e8ff" stroke="#7c3aed" stroke-width="2" rx="3"/>
        <text x="162" y="17" text-anchor="middle" font-size="12" font-weight="bold">5</text>
        <rect x="180" y="0" width="25" height="25" fill="#f3e8ff" stroke="#7c3aed" stroke-width="2" rx="3"/>
        <text x="192" y="17" text-anchor="middle" font-size="12" font-weight="bold">6</text>
        <rect x="210" y="0" width="25" height="25" fill="#f3e8ff" stroke="#7c3aed" stroke-width="2" rx="3"/>
        <text x="222" y="17" text-anchor="middle" font-size="12" font-weight="bold">7</text>
        <rect x="240" y="0" width="25" height="25" fill="#f3e8ff" stroke="#7c3aed" stroke-width="2" rx="3"/>
        <text x="252" y="17" text-anchor="middle" font-size="12" font-weight="bold">8</text>
        <rect x="270" y="0" width="25" height="25" fill="#f3e8ff" stroke="#7c3aed" stroke-width="2" rx="3"/>
        <text x="282" y="17" text-anchor="middle" font-size="12" font-weight="bold">9</text>
        <rect x="300" y="0" width="25" height="25" fill="#f3e8ff" stroke="#7c3aed" stroke-width="2" rx="3"/>
        <text x="312" y="17" text-anchor="middle" font-size="12" font-weight="bold">A</text>
        <rect x="330" y="0" width="25" height="25" fill="#f3e8ff" stroke="#7c3aed" stroke-width="2" rx="3"/>
        <text x="342" y="17" text-anchor="middle" font-size="12" font-weight="bold">B</text>
        <rect x="360" y="0" width="25" height="25" fill="#f3e8ff" stroke="#7c3aed" stroke-width="2" rx="3"/>
        <text x="372" y="17" text-anchor="middle" font-size="12" font-weight="bold">C</text>
        <rect x="390" y="0" width="25" height="25" fill="#f3e8ff" stroke="#7c3aed" stroke-width="2" rx="3"/>
        <text x="402" y="17" text-anchor="middle" font-size="12" font-weight="bold">D</text>
        <rect x="420" y="0" width="25" height="25" fill="#f3e8ff" stroke="#7c3aed" stroke-width="2" rx="3"/>
        <text x="432" y="17" text-anchor="middle" font-size="12" font-weight="bold">E</text>
        <rect x="450" y="0" width="25" height="25" fill="#f3e8ff" stroke="#7c3aed" stroke-width="2" rx="3"/>
        <text x="462" y="17" text-anchor="middle" font-size="12" font-weight="bold">F</text>
      </g>
      
      <text x="0" y="100" font-size="14">Example: A5 = 10×16 + 5×1 = 165</text>
      <text x="0" y="120" font-size="14">Place values: 1, 16, 256, 4096...</text>
    </g>
    
    <!-- Comparison Table -->
    <g transform="translate(450,220)">
      <text x="0" y="0" font-size="18" font-weight="bold">Same Number in Different Systems</text>
      
      <g transform="translate(0,30)">
        <rect x="0" y="0" width="200" height="30" fill="#f8fafc" stroke="#e2e8f0" stroke-width="1"/>
        <text x="10" y="20" font-size="14" font-weight="bold">Decimal</text>
        <text x="150" y="20" font-size="14">15</text>
        
        <rect x="0" y="35" width="200" height="30" fill="#f8fafc" stroke="#e2e8f0" stroke-width="1"/>
        <text x="10" y="55" font-size="14" font-weight="bold">Binary</text>
        <text x="150" y="55" font-size="14">1111</text>
        
        <rect x="0" y="70" width="200" height="30" fill="#f8fafc" stroke="#e2e8f0" stroke-width="1"/>
        <text x="10" y="90" font-size="14" font-weight="bold">Hexadecimal</text>
        <text x="150" y="90" font-size="14">F</text>
      </g>
    </g>
  </g>
</svg>
