<svg xmlns="http://www.w3.org/2000/svg" width="960" height="300" viewBox="0 0 960 300">
  <title>Counting in Twos from 0 to 20</title>
  <desc>Number line showing counting in twos from 0 to 20 with even numbers highlighted</desc>
  <rect width="960" height="300" fill="#ffffff"/>
  <g font-family="Arial, Helvetica, sans-serif" fill="#111">
    <text x="480" y="30" text-anchor="middle" font-size="24" font-weight="bold">Counting in Twos: 0 to 20</text>
    
    <!-- Number line -->
    <line x1="80" y1="150" x2="880" y2="150" stroke="#111" stroke-width="3"/>
    
    <!-- Numbers 0-20 -->
    <g font-size="16" text-anchor="middle">
      <text x="80" y="180">0</text>
      <text x="120" y="180">1</text>
      <text x="160" y="180">2</text>
      <text x="200" y="180">3</text>
      <text x="240" y="180">4</text>
      <text x="280" y="180">5</text>
      <text x="320" y="180">6</text>
      <text x="360" y="180">7</text>
      <text x="400" y="180">8</text>
      <text x="440" y="180">9</text>
      <text x="480" y="180">10</text>
      <text x="520" y="180">11</text>
      <text x="560" y="180">12</text>
      <text x="600" y="180">13</text>
      <text x="640" y="180">14</text>
      <text x="680" y="180">15</text>
      <text x="720" y="180">16</text>
      <text x="760" y="180">17</text>
      <text x="800" y="180">18</text>
      <text x="840" y="180">19</text>
      <text x="880" y="180">20</text>
    </g>
    
    <!-- Tick marks -->
    <g stroke="#111" stroke-width="2">
      <line x1="80" y1="145" x2="80" y2="155"/>
      <line x1="120" y1="145" x2="120" y2="155"/>
      <line x1="160" y1="145" x2="160" y2="155"/>
      <line x1="200" y1="145" x2="200" y2="155"/>
      <line x1="240" y1="145" x2="240" y2="155"/>
      <line x1="280" y1="145" x2="280" y2="155"/>
      <line x1="320" y1="145" x2="320" y2="155"/>
      <line x1="360" y1="145" x2="360" y2="155"/>
      <line x1="400" y1="145" x2="400" y2="155"/>
      <line x1="440" y1="145" x2="440" y2="155"/>
      <line x1="480" y1="145" x2="480" y2="155"/>
      <line x1="520" y1="145" x2="520" y2="155"/>
      <line x1="560" y1="145" x2="560" y2="155"/>
      <line x1="600" y1="145" x2="600" y2="155"/>
      <line x1="640" y1="145" x2="640" y2="155"/>
      <line x1="680" y1="145" x2="680" y2="155"/>
      <line x1="720" y1="145" x2="720" y2="155"/>
      <line x1="760" y1="145" x2="760" y2="155"/>
      <line x1="800" y1="145" x2="800" y2="155"/>
      <line x1="840" y1="145" x2="840" y2="155"/>
      <line x1="880" y1="145" x2="880" y2="155"/>
    </g>
    
    <!-- Highlighted even numbers -->
    <g fill="#2563eb">
      <circle cx="80" cy="150" r="10"/>
      <circle cx="160" cy="150" r="10"/>
      <circle cx="240" cy="150" r="10"/>
      <circle cx="320" cy="150" r="10"/>
      <circle cx="400" cy="150" r="10"/>
      <circle cx="480" cy="150" r="10"/>
      <circle cx="560" cy="150" r="10"/>
      <circle cx="640" cy="150" r="10"/>
      <circle cx="720" cy="150" r="10"/>
      <circle cx="800" cy="150" r="10"/>
      <circle cx="880" cy="150" r="10"/>
    </g>
    
    <!-- Number labels on circles -->
    <g fill="white" font-size="14" font-weight="bold" text-anchor="middle">
      <text x="80" y="156">0</text>
      <text x="160" y="156">2</text>
      <text x="240" y="156">4</text>
      <text x="320" y="156">6</text>
      <text x="400" y="156">8</text>
      <text x="480" y="156">10</text>
      <text x="560" y="156">12</text>
      <text x="640" y="156">14</text>
      <text x="720" y="156">16</text>
      <text x="800" y="156">18</text>
      <text x="880" y="156">20</text>
    </g>
    
    <!-- Jumping arrows -->
    <g stroke="#ea580c" stroke-width="3" fill="none" marker-end="url(#arrow)">
      <line x1="80" y1="120" x2="160" y2="120"/>
      <line x1="160" y1="120" x2="240" y2="120"/>
      <line x1="240" y1="120" x2="320" y2="120"/>
      <line x1="320" y1="120" x2="400" y2="120"/>
      <line x1="400" y1="120" x2="480" y2="120"/>
      <line x1="480" y1="120" x2="560" y2="120"/>
      <line x1="560" y1="120" x2="640" y2="120"/>
      <line x1="640" y1="120" x2="720" y2="120"/>
      <line x1="720" y1="120" x2="800" y2="120"/>
      <line x1="800" y1="120" x2="880" y2="120"/>
    </g>
    
    <text x="480" y="100" text-anchor="middle" font-size="18" font-weight="bold" fill="#ea580c">0, 2, 4, 6, 8, 10, 12, 14, 16, 18, 20</text>
    
    <defs>
      <marker id="arrow" markerWidth="10" markerHeight="7" refX="9" refY="3.5" orient="auto">
        <polygon points="0 0, 10 3.5, 0 7" fill="#ea580c"/>
      </marker>
    </defs>
  </g>
</svg>
