<svg xmlns="http://www.w3.org/2000/svg" width="800" height="600" viewBox="0 0 800 600">
  <title>Hundred Chart with Even Numbers</title>
  <desc>Hundred chart showing even numbers highlighted to reveal pattern</desc>
  <rect width="800" height="600" fill="#ffffff"/>
  <g font-family="Arial, Helvetica, sans-serif" fill="#111">
    <text x="400" y="30" text-anchor="middle" font-size="24" font-weight="bold">Hundred Chart - Even Numbers Pattern</text>
    
    <!-- Chart grid -->
    <g transform="translate(100,80)">
      <!-- Vertical lines -->
      <g stroke="#ddd" stroke-width="1">
        <line x1="0" y1="0" x2="0" y2="400"/>
        <line x1="40" y1="0" x2="40" y2="400"/>
        <line x1="80" y1="0" x2="80" y2="400"/>
        <line x1="120" y1="0" x2="120" y2="400"/>
        <line x1="160" y1="0" x2="160" y2="400"/>
        <line x1="200" y1="0" x2="200" y2="400"/>
        <line x1="240" y1="0" x2="240" y2="400"/>
        <line x1="280" y1="0" x2="280" y2="400"/>
        <line x1="320" y1="0" x2="320" y2="400"/>
        <line x1="360" y1="0" x2="360" y2="400"/>
        <line x1="400" y1="0" x2="400" y2="400"/>
      </g>
      
      <!-- Horizontal lines -->
      <g stroke="#ddd" stroke-width="1">
        <line x1="0" y1="0" x2="400" y2="0"/>
        <line x1="0" y1="40" x2="400" y2="40"/>
        <line x1="0" y1="80" x2="400" y2="80"/>
        <line x1="0" y1="120" x2="400" y2="120"/>
        <line x1="0" y1="160" x2="400" y2="160"/>
        <line x1="0" y1="200" x2="400" y2="200"/>
        <line x1="0" y1="240" x2="400" y2="240"/>
        <line x1="0" y1="280" x2="400" y2="280"/>
        <line x1="0" y1="320" x2="400" y2="320"/>
        <line x1="0" y1="360" x2="400" y2="360"/>
        <line x1="0" y1="400" x2="400" y2="400"/>
      </g>
      
      <!-- Numbers 1-100 -->
      <g font-size="12" text-anchor="middle">
        <!-- Row 1 (1-10) -->
        <text x="20" y="25">1</text>
        <text x="60" y="25">2</text>
        <text x="100" y="25">3</text>
        <text x="140" y="25">4</text>
        <text x="180" y="25">5</text>
        <text x="220" y="25">6</text>
        <text x="260" y="25">7</text>
        <text x="300" y="25">8</text>
        <text x="340" y="25">9</text>
        <text x="380" y="25">10</text>
        
        <!-- Row 2 (11-20) -->
        <text x="20" y="65">11</text>
        <text x="60" y="65">12</text>
        <text x="100" y="65">13</text>
        <text x="140" y="65">14</text>
        <text x="180" y="65">15</text>
        <text x="220" y="65">16</text>
        <text x="260" y="65">17</text>
        <text x="300" y="65">18</text>
        <text x="340" y="65">19</text>
        <text x="380" y="65">20</text>
        
        <!-- Row 3 (21-30) -->
        <text x="20" y="105">21</text>
        <text x="60" y="105">22</text>
        <text x="100" y="105">23</text>
        <text x="140" y="105">24</text>
        <text x="180" y="105">25</text>
        <text x="220" y="105">26</text>
        <text x="260" y="105">27</text>
        <text x="300" y="105">28</text>
        <text x="340" y="105">29</text>
        <text x="380" y="105">30</text>
        
        <!-- Row 4 (31-40) -->
        <text x="20" y="145">31</text>
        <text x="60" y="145">32</text>
        <text x="100" y="145">33</text>
        <text x="140" y="145">34</text>
        <text x="180" y="145">35</text>
        <text x="220" y="145">36</text>
        <text x="260" y="145">37</text>
        <text x="300" y="145">38</text>
        <text x="340" y="145">39</text>
        <text x="380" y="145">40</text>
        
        <!-- Row 5 (41-50) -->
        <text x="20" y="185">41</text>
        <text x="60" y="185">42</text>
        <text x="100" y="185">43</text>
        <text x="140" y="185">44</text>
        <text x="180" y="185">45</text>
        <text x="220" y="185">46</text>
        <text x="260" y="185">47</text>
        <text x="300" y="185">48</text>
        <text x="340" y="185">49</text>
        <text x="380" y="185">50</text>
        
        <!-- Row 6 (51-60) -->
        <text x="20" y="225">51</text>
        <text x="60" y="225">52</text>
        <text x="100" y="225">53</text>
        <text x="140" y="225">54</text>
        <text x="180" y="225">55</text>
        <text x="220" y="225">56</text>
        <text x="260" y="225">57</text>
        <text x="300" y="225">58</text>
        <text x="340" y="225">59</text>
        <text x="380" y="225">60</text>
        
        <!-- Row 7 (61-70) -->
        <text x="20" y="265">61</text>
        <text x="60" y="265">62</text>
        <text x="100" y="265">63</text>
        <text x="140" y="265">64</text>
        <text x="180" y="265">65</text>
        <text x="220" y="265">66</text>
        <text x="260" y="265">67</text>
        <text x="300" y="265">68</text>
        <text x="340" y="265">69</text>
        <text x="380" y="265">70</text>
        
        <!-- Row 8 (71-80) -->
        <text x="20" y="305">71</text>
        <text x="60" y="305">72</text>
        <text x="100" y="305">73</text>
        <text x="140" y="305">74</text>
        <text x="180" y="305">75</text>
        <text x="220" y="305">76</text>
        <text x="260" y="305">77</text>
        <text x="300" y="305">78</text>
        <text x="340" y="305">79</text>
        <text x="380" y="305">80</text>
        
        <!-- Row 9 (81-90) -->
        <text x="20" y="345">81</text>
        <text x="60" y="345">82</text>
        <text x="100" y="345">83</text>
        <text x="140" y="345">84</text>
        <text x="180" y="345">85</text>
        <text x="220" y="345">86</text>
        <text x="260" y="345">87</text>
        <text x="300" y="345">88</text>
        <text x="340" y="345">89</text>
        <text x="380" y="345">90</text>
        
        <!-- Row 10 (91-100) -->
        <text x="20" y="385">91</text>
        <text x="60" y="385">92</text>
        <text x="100" y="385">93</text>
        <text x="140" y="385">94</text>
        <text x="180" y="385">95</text>
        <text x="220" y="385">96</text>
        <text x="260" y="385">97</text>
        <text x="300" y="385">98</text>
        <text x="340" y="385">99</text>
        <text x="380" y="385">100</text>
      </g>
      
      <!-- Highlight even numbers -->
      <g fill="#2563eb" opacity="0.3">
        <!-- Column 2 (even numbers ending in 2) -->
        <rect x="40" y="0" width="40" height="40"/>
        <rect x="40" y="40" width="40" height="40"/>
        <rect x="40" y="80" width="40" height="40"/>
        <rect x="40" y="120" width="40" height="40"/>
        <rect x="40" y="160" width="40" height="40"/>
        <rect x="40" y="200" width="40" height="40"/>
        <rect x="40" y="240" width="40" height="40"/>
        <rect x="40" y="280" width="40" height="40"/>
        <rect x="40" y="320" width="40" height="40"/>
        <rect x="40" y="360" width="40" height="40"/>
        
        <!-- Column 4 (even numbers ending in 4) -->
        <rect x="120" y="0" width="40" height="40"/>
        <rect x="120" y="40" width="40" height="40"/>
        <rect x="120" y="80" width="40" height="40"/>
        <rect x="120" y="120" width="40" height="40"/>
        <rect x="120" y="160" width="40" height="40"/>
        <rect x="120" y="200" width="40" height="40"/>
        <rect x="120" y="240" width="40" height="40"/>
        <rect x="120" y="280" width="40" height="40"/>
        <rect x="120" y="320" width="40" height="40"/>
        <rect x="120" y="360" width="40" height="40"/>
        
        <!-- Column 6 (even numbers ending in 6) -->
        <rect x="200" y="0" width="40" height="40"/>
        <rect x="200" y="40" width="40" height="40"/>
        <rect x="200" y="80" width="40" height="40"/>
        <rect x="200" y="120" width="40" height="40"/>
        <rect x="200" y="160" width="40" height="40"/>
        <rect x="200" y="200" width="40" height="40"/>
        <rect x="200" y="240" width="40" height="40"/>
        <rect x="200" y="280" width="40" height="40"/>
        <rect x="200" y="320" width="40" height="40"/>
        <rect x="200" y="360" width="40" height="40"/>
        
        <!-- Column 8 (even numbers ending in 8) -->
        <rect x="280" y="0" width="40" height="40"/>
        <rect x="280" y="40" width="40" height="40"/>
        <rect x="280" y="80" width="40" height="40"/>
        <rect x="280" y="120" width="40" height="40"/>
        <rect x="280" y="160" width="40" height="40"/>
        <rect x="280" y="200" width="40" height="40"/>
        <rect x="280" y="240" width="40" height="40"/>
        <rect x="280" y="280" width="40" height="40"/>
        <rect x="280" y="320" width="40" height="40"/>
        <rect x="280" y="360" width="40" height="40"/>
        
        <!-- Column 10 (even numbers ending in 0) -->
        <rect x="360" y="0" width="40" height="40"/>
        <rect x="360" y="40" width="40" height="40"/>
        <rect x="360" y="80" width="40" height="40"/>
        <rect x="360" y="120" width="40" height="40"/>
        <rect x="360" y="160" width="40" height="40"/>
        <rect x="360" y="200" width="40" height="40"/>
        <rect x="360" y="240" width="40" height="40"/>
        <rect x="360" y="280" width="40" height="40"/>
        <rect x="360" y="320" width="40" height="40"/>
        <rect x="360" y="360" width="40" height="40"/>
      </g>
    </g>
    
    <!-- Pattern explanation -->
    <g transform="translate(100,500)">
      <text x="0" y="0" font-size="18" font-weight="bold">Pattern Recognition:</text>
      <text x="0" y="25" font-size="14">Even numbers appear in columns 2, 4, 6, 8, and 10</text>
      <text x="0" y="45" font-size="14">This pattern makes it easy to identify even numbers quickly!</text>
    </g>
  </g>
</svg>
