<svg xmlns="http://www.w3.org/2000/svg" viewBox="0 0 800 440">
  <rect width="800" height="440" fill="#ffffff"/>

  <rect x="0" y="0" width="800" height="60" fill="#be185d"/>
  <text x="400" y="38" font-family="Arial, Helvetica, sans-serif" font-size="22" text-anchor="middle" fill="#ffffff">Pie Charts</text>

  <rect x="60" y="90" width="680" height="280" rx="14" ry="14" fill="#fdf2f8" stroke="#be185d" stroke-width="2"/>

  <!-- Chart title -->
  <text x="120" y="120" font-family="Arial, Helvetica, sans-serif" font-size="16" fill="#000000" font-weight="bold">Time Spent on Activities (Daily)</text>

  <!-- Pie chart -->
  <g transform="translate(200, 240)">
    <!-- Mathematics: 30% (108°) - Blue -->
    <path d="M 0,0 L 80,0 A 80,80 0 0,1 24.72,76.39 Z" fill="#4472c4" stroke="#ffffff" stroke-width="1"/>
    <text x="30" y="8" font-family="Arial, Helvetica, sans-serif" font-size="12" text-anchor="middle" fill="#ffffff" font-weight="bold">30%</text>
    
    <!-- English: 25% (90°) - Red-Orange -->
    <path d="M 24.72,76.39 A 80,80 0 0,1 -24.72,76.39 Z" fill="#d55e00" stroke="#ffffff" stroke-width="1"/>
    <text x="0" y="85" font-family="Arial, Helvetica, sans-serif" font-size="12" text-anchor="middle" fill="#ffffff" font-weight="bold">25%</text>
    
    <!-- Science: 20% (72°) - Orange -->
    <path d="M -24.72,76.39 A 80,80 0 0,1 -80,0 Z" fill="#e69f00" stroke="#ffffff" stroke-width="1"/>
    <text x="-30" y="8" font-family="Arial, Helvetica, sans-serif" font-size="12" text-anchor="middle" fill="#ffffff" font-weight="bold">20%</text>
    
    <!-- History: 15% (54°) - Dark Green -->
    <path d="M -80,0 A 80,80 0 0,1 -24.72,-76.39 Z" fill="#009e73" stroke="#ffffff" stroke-width="1"/>
    <text x="-30" y="-8" font-family="Arial, Helvetica, sans-serif" font-size="12" text-anchor="middle" fill="#ffffff" font-weight="bold">15%</text>
    
    <!-- Geography: 10% (36°) - Purple -->
    <path d="M -24.72,-76.39 A 80,80 0 0,1 24.72,-76.39 Z" fill="#cc79a7" stroke="#ffffff" stroke-width="1"/>
    <text x="0" y="-85" font-family="Arial, Helvetica, sans-serif" font-size="12" text-anchor="middle" fill="#ffffff" font-weight="bold">10%</text>
  </g>

  <!-- Legend -->
  <g font-family="Arial, Helvetica, sans-serif" font-size="12" fill="#000000">
    <rect x="450" y="160" width="12" height="12" fill="#4472c4"/>
    <text x="470" y="170" fill="#000000">Mathematics</text>
    
    <rect x="450" y="180" width="12" height="12" fill="#d55e00"/>
    <text x="470" y="190" fill="#000000">English</text>
    
    <rect x="450" y="200" width="12" height="12" fill="#e69f00"/>
    <text x="470" y="210" fill="#000000">Science</text>
    
    <rect x="450" y="220" width="12" height="12" fill="#009e73"/>
    <text x="470" y="230" fill="#000000">History</text>
    
    <rect x="450" y="240" width="12" height="12" fill="#cc79a7"/>
    <text x="470" y="250" fill="#000000">Geography</text>
  </g>

  <text x="400" y="360" font-family="Arial, Helvetica, sans-serif" font-size="11" text-anchor="middle" fill="#6b7280">Shows parts of a whole</text>
</svg>
