<svg xmlns="http://www.w3.org/2000/svg" viewBox="0 0 800 440">
  <rect width="800" height="440" fill="#ffffff"/>

  <rect x="0" y="0" width="800" height="60" fill="#be185d"/>
  <text x="400" y="38" font-family="Arial, Helvetica, sans-serif" font-size="22" text-anchor="middle" fill="#ffffff">Pie Charts</text>

  <rect x="60" y="90" width="680" height="280" rx="14" ry="14" fill="#fdf2f8" stroke="#be185d" stroke-width="2"/>

  <!-- Chart title -->
  <text x="400" y="120" font-family="Arial, Helvetica, sans-serif" font-size="16" text-anchor="middle" fill="#374151" font-weight="bold">Time Spent on Activities (Daily)</text>

  <!-- Pie chart -->
  <g transform="translate(200, 200)">
    <!-- Mathematics: 30% -->
    <path d="M 0,0 L 80,0 A 80,80 0 0,1 24.72,76.39 Z" fill="#3b82f6"/>
    <text x="40" y="-10" font-family="Arial, Helvetica, sans-serif" font-size="12" text-anchor="middle" fill="#ffffff" font-weight="bold">30%</text>
    
    <!-- English: 25% -->
    <path d="M 24.72,76.39 A 80,80 0 0,1 -24.72,76.39 Z" fill="#10b981"/>
    <text x="0" y="90" font-family="Arial, Helvetica, sans-serif" font-size="12" text-anchor="middle" fill="#ffffff" font-weight="bold">25%</text>
    
    <!-- Science: 20% -->
    <path d="M -24.72,76.39 A 80,80 0 0,1 -80,0 Z" fill="#f59e0b"/>
    <text x="-40" y="-10" font-family="Arial, Helvetica, sans-serif" font-size="12" text-anchor="middle" fill="#ffffff" font-weight="bold">20%</text>
    
    <!-- History: 15% -->
    <path d="M -80,0 A 80,80 0 0,1 -24.72,-76.39 Z" fill="#ef4444"/>
    <text x="-40" y="-90" font-family="Arial, Helvetica, sans-serif" font-size="12" text-anchor="middle" fill="#ffffff" font-weight="bold">15%</text>
    
    <!-- Geography: 10% -->
    <path d="M -24.72,-76.39 A 80,80 0 0,1 24.72,-76.39 Z" fill="#8b5cf6"/>
    <text x="0" y="-90" font-family="Arial, Helvetica, sans-serif" font-size="12" text-anchor="middle" fill="#ffffff" font-weight="bold">10%</text>
    
    <!-- Complete the circle -->
    <path d="M 24.72,-76.39 A 80,80 0 0,1 80,0 Z" fill="#06b6d4"/>
  </g>

  <!-- Legend -->
  <g font-family="Arial, Helvetica, sans-serif" font-size="14" fill="#111">
    <rect x="450" y="150" width="15" height="15" fill="#3b82f6"/>
    <text x="475" y="162" fill="#374151">Mathematics (30%)</text>
    
    <rect x="450" y="175" width="15" height="15" fill="#10b981"/>
    <text x="475" y="187" fill="#374151">English (25%)</text>
    
    <rect x="450" y="200" width="15" height="15" fill="#f59e0b"/>
    <text x="475" y="212" fill="#374151">Science (20%)</text>
    
    <rect x="450" y="225" width="15" height="15" fill="#ef4444"/>
    <text x="475" y="237" fill="#374151">History (15%)</text>
    
    <rect x="450" y="250" width="15" height="15" fill="#8b5cf6"/>
    <text x="475" y="262" fill="#374151">Geography (10%)</text>
  </g>

  <!-- Key features -->
  <g font-family="Arial, Helvetica, sans-serif" font-size="12" fill="#6b7280">
    <text x="450" y="300" fill="#374151">Key Features:</text>
    <text x="450" y="320" fill="#6b7280">• Shows parts of a whole</text>
    <text x="450" y="335" fill="#6b7280">• Angles represent proportions</text>
    <text x="450" y="350" fill="#6b7280">• Easy to compare categories</text>
  </g>

  <text x="400" y="360" font-family="Arial, Helvetica, sans-serif" font-size="11" text-anchor="middle" fill="#6b7280">Shows parts of a whole</text>
</svg>
